ply
format ascii 1.0
comment zipper output
comment modified by normalsply
element vertex 453
property float32 x
property float32 y
property float32 z
property float32 nx
property float32 ny
property float32 nz
property float32 confidence
property float32 intensity
element face 948
property list uint8 int32 vertex_indices
end_header
-0.0312216 0.126304 0.00514924 -0.146779 -0.971262 0.187367 0.850855 0.5 
-0.0446774 0.131204 0.00570479 -0.722048 -0.630901 0.283921 0.900159 0.5 
-0.0683011 0.144828 0.0413688 -0.24869 -0.60008 -0.760301 0.398443 0.5 
-0.00600095 0.130398 0.0178986 0.140048 -0.983386 -0.11549 0.85268 0.5 
-0.0173568 0.127613 0.00526885 0.201707 -0.967266 0.153986 0.675938 0.5 
0.0330513 0.107034 0.0319543 -0.676784 -0.472515 -0.564529 0.652757 0.5 
0.0400873 0.10521 0.0173419 -0.88876 -0.452167 -0.0751707 0.708171 0.5 
-0.0301802 0.106322 0.0399745 0.0852984 -0.517352 -0.851511 0.454541 0.437538 
0.0304193 0.118572 0.0188068 -0.703096 -0.703318 -0.104884 0.533079 0.5 
-0.0640822 0.159391 -0.0169096 -0.839988 -0.510191 -0.184731 0.404517 0.5 
0.0447046 0.0927877 0.00507585 -0.969295 -0.212643 0.123495 0.579563 0.425995 
-0.0316754 0.170395 -0.00635023 -0.532906 -0.196119 -0.823133 0.365607 0.5 
-0.0848523 0.134078 0.0470177 0.622742 -0.272644 -0.733388 0.499575 0.5 
-0.0688547 0.122052 0.0517569 -0.44288 0.0100977 -0.896524 0.564827 0.5 
0.00595475 0.131024 0.0178252 -0.116124 -0.984431 -0.131947 0.748371 0.5 
0.0404629 0.105142 0.00640978 -0.895544 -0.442102 0.0504594 0.680399 0.5 
0.0387342 0.102161 -0.00463112 -0.849672 -0.369566 0.376136 0.600054 0.5 
-0.0914513 0.134136 0.0171026 0.996687 -0.0786761 0.0206116 0.824561 0.5 
-0.0818721 0.107166 0.031016 0.762857 0.284759 -0.580484 0.690889 0.5 
-0.067218 0.156155 0.0178863 0.0241235 -0.998611 -0.0468377 0.807492 0.5 
-0.0795687 0.152875 0.0299311 0.35839 -0.877841 -0.317729 0.248168 0.41865 
0.00596007 0.122504 0.0346272 -0.152771 -0.672575 -0.724088 0.555044 0.354559 
-0.0516317 0.145001 0.0184804 -0.861938 -0.350468 -0.36638 0.691477 0.5 
-0.0779781 0.13255 0.0513494 0.0121932 -0.40606 -0.913765 0.566256 0.5 
-0.00590708 0.127934 0.0274623 0.134026 -0.892855 -0.429939 0.271491 0.462815 
-0.0479133 0.129301 0.0269646 -0.569307 -0.528345 -0.629874 0.539149 0.5 
-0.082427 0.0928134 -0.00556046 0.853147 0.0352273 0.52048 0.710999 0.5 
0.01744 0.127694 0.0185348 -0.420437 -0.885046 -0.199814 0.530957 0.5 
-0.0906868 0.120305 0.0066804 0.946757 0.0886466 0.309506 0.635593 0.5 
-0.0294038 0.17903 -0.00787959 0.505398 -0.797612 -0.329225 0.269231 0.447035 
-0.0797891 0.14376 0.0426994 0.308332 -0.635734 -0.707654 0.414139 0.5 
-0.018288 0.108329 0.0415098 0.213738 -0.440469 -0.871953 0.482541 0.5 
-0.0202326 0.181846 -0.0183274 0.0125185 -0.999844 0.0124843 0.341071 0.440034 
-0.0377039 0.167987 -0.0130391 0.501616 -0.123629 0.856211 0.396317 0.473039 
0.00582164 0.12806 0.0279016 -0.096407 -0.895825 -0.433825 0.350014 0.41288 
-0.0435389 0.130014 0.0175333 -0.588606 -0.777553 -0.221254 0.599596 0.5 
0.0188699 0.119862 0.032409 -0.398436 -0.640332 -0.656676 0.625269 0.5 
-0.0440101 0.167035 0.00231898 -0.0210842 -0.520425 -0.853647 0.413994 0.469929 
-0.089811 0.132401 0.00705743 0.880445 -0.109621 0.461302 0.625486 0.5 
-0.057352 0.144989 0.0315196 -0.751623 -0.325761 -0.573536 0.696873 0.5 
0.0442622 0.0934526 0.0176417 -0.961528 -0.221374 -0.16266 0.665192 0.5 
0.0412343 0.0921731 0.0285603 -0.888361 -0.229117 -0.397894 0.671611 0.5 
-0.0563953 0.154565 0.016878 -0.507963 -0.837194 -0.202682 0.394763 0.437313 
-0.0206135 0.159773 -0.00717522 -0.73661 0.0503642 -0.67444 0.136389 0.380194 
-0.0729893 0.0656116 0.0181693 0.596575 0.789399 -0.144735 0.413051 0.5 
-0.0673967 0.155256 0.00581389 -0.0684263 -0.982448 0.173534 0.855717 0.5 
-0.0904864 0.118611 0.0412148 0.856036 0.314503 -0.410232 0.673877 0.5 
0.0273142 0.117965 0.0286191 -0.575736 -0.68428 -0.447536 0.635485 0.5 
0.041907 0.0916386 -0.00556945 -0.85378 -0.215025 0.474157 0.585857 0.459742 
-0.0702109 0.165303 -0.0194661 -0.259774 -0.915551 -0.307058 0.548789 0.5 
-0.0061847 0.122729 0.034787 0.0799989 -0.69982 -0.709825 0.602316 0.374044 
0.0300138 0.0932786 0.0421476 -0.545184 -0.25176 -0.799619 0.649753 0.5 
-0.0175129 0.162126 -0.0145489 -0.273733 0.710316 0.648476 0.338176 0.5 
-0.0763977 0.171291 -0.0411021 0.971967 0.159254 0.172968 0.256591 0.4298 
-0.0854227 0.105386 0.00339486 0.901883 -0.0534371 0.428663 0.523819 0.297125 
0.0370431 0.110443 0.0207229 -0.782267 -0.584369 -0.215804 0.52623 0.448558 
-0.00659732 0.0427285 0.0469391 0.00880676 0.390516 -0.920554 0.280725 0.5 
0.00639794 0.0437006 0.046826 -0.244333 0.457467 -0.855 0.331809 0.5 
-0.0559247 0.157606 0.00656455 0.249191 -0.953902 -0.167255 0.561042 0.5 
-0.0911449 0.118816 0.0298442 0.924336 0.332816 -0.186644 0.848517 0.5 
-0.0595109 0.128352 0.0399626 -0.681661 -0.142339 -0.717689 0.658867 0.444043 
-0.0176335 0.127605 0.0179366 0.237123 -0.94531 -0.223969 0.547632 0.5 
-0.066633 0.153831 0.0308703 -0.177297 -0.854575 -0.488127 0.855321 0.5 
-0.0436418 0.169438 -0.00550226 0.646708 -0.685964 0.333499 0.274377 0.177706 
-0.0572759 0.043243 0.042862 0.362144 -0.640036 -0.677647 0.417977 0.459314 
-0.0763773 0.157221 -0.0168889 0.999928 -0.00618519 0.0103361 0.267801 0.372187 
-0.0434461 0.15605 0.00615795 -0.653428 -0.147551 -0.74247 0.447592 0.5 
-0.0427118 0.0421645 0.0427004 0.170395 -0.201838 -0.964483 0.509262 0.5 
-0.0254201 0.0886622 0.0503827 0.638576 -0.153641 -0.754066 0.608282 0.5 
-0.014179 0.12627 0.0266417 0.310195 -0.876731 -0.36759 0.420759 0.5 
-0.0882582 0.0898687 0.00696625 0.967079 0.0756844 0.24296 0.753697 0.5 
-0.0688695 0.157773 -0.00687593 -0.327914 -0.860181 -0.39059 0.595216 0.5 
-0.0679676 0.142877 -0.00757643 -0.404672 0.0919675 0.909826 0.446131 0.5 
0.0188538 0.106293 0.0416902 -0.265906 -0.450648 -0.85218 0.669811 0.5 
-0.036487 0.171225 0.000545037 0.00329626 -0.908886 -0.417031 0.438578 0.5 
-0.0664352 0.117198 -0.00987161 0.307424 -0.264545 0.91406 0.569796 0.5 
-0.0682606 0.170398 -0.0436995 -0.719943 -0.639353 -0.270019 0.381568 0.451091 
-0.090925 0.14605 0.0190382 0.893669 -0.4476 0.0317863 0.648478 0.5 
0.00678622 0.115841 0.0388077 -0.130554 -0.511976 -0.849021 0.549283 0.408623 
0.0310139 0.0930696 -0.017798 -0.563653 -0.29096 0.77307 0.732658 0.5 
0.0056976 0.10589 0.0435511 -0.125383 -0.51058 -0.850639 0.592572 0.5 
-0.0706519 0.13063 0.0502497 -0.437114 -0.455117 -0.775758 0.563116 0.5 
0.0059746 0.130858 0.00579479 -0.0731125 -0.989097 0.127834 0.795238 0.5 
0.0184217 0.0423182 0.042477 -0.493709 0.446152 -0.746458 0.259499 0.426724 
0.0147876 0.0909747 0.0509658 -0.340724 -0.330282 -0.880239 0.654705 0.5 
-0.00598232 0.115409 0.0402027 0.0347546 -0.472283 -0.880761 0.615633 0.5 
-0.0811312 0.117972 -0.00359453 0.642043 -0.0368507 0.765782 0.505277 0.5 
-0.0787032 0.144274 -0.00389052 0.790039 -0.136663 0.597631 0.466714 0.5 
0.00581988 0.106226 -0.0208968 -0.105371 -0.49846 0.860485 0.792948 0.5 
-0.0192761 0.119853 0.0328061 0.292478 -0.735695 -0.610909 0.445477 0.415699 
-0.00593116 0.130215 0.005954 0.142687 -0.977892 0.152864 0.738924 0.5 
-0.0893322 0.142745 0.0290326 0.907106 -0.371827 -0.197241 0.80362 0.5 
-0.00762538 0.123273 -0.00981555 0.0844646 -0.775727 0.625391 0.767738 0.284429 
-0.0692263 0.178922 -0.0542743 -0.206292 -0.958038 0.199017 0.245129 0.411885 
-0.0298757 0.124252 0.0209674 -0.0429047 -0.889114 -0.455671 0.32811 0.5 
-0.0848266 0.148987 0.0327697 0.681476 -0.666184 -0.302968 0.331963 0.314683 
-0.0888516 0.0909723 0.0179034 0.962639 0.15529 -0.221835 0.603378 0.5 
-0.0305879 0.122384 -0.00635771 -0.128625 -0.842159 0.523664 0.63839 0.5 
-0.0307198 0.117989 0.0306166 -0.00433984 -0.697198 -0.716866 0.543293 0.5 
-0.0780612 0.120653 0.0513999 0.337744 0.286499 -0.896575 0.490413 0.5 
0.0332714 0.108498 -0.00743195 -0.643814 -0.505497 0.574435 0.534403 0.5 
-0.0677112 0.0928918 -0.0168814 0.399778 -0.142905 0.905404 0.511499 0.5 
-0.075666 0.0911817 -0.0136967 0.616471 -0.0187233 0.787155 0.429902 0.5 
-0.082422 0.0951121 0.0310878 0.806783 -0.0198367 -0.590515 0.678588 0.5 
-0.0856984 0.136903 0.00192122 0.788287 -0.171013 0.591065 0.517441 0.5 
-0.0292804 0.0417747 0.051397 0.555687 -0.201637 -0.80657 0.553401 0.5 
-0.017732 0.0423864 0.051684 -0.430098 -0.132731 -0.892971 0.709553 0.5 
-0.0656987 0.171007 -0.056644 0.0315174 0.388766 0.920797 0.549906 0.5 
-0.0298523 0.170905 -0.0165609 0.466563 -0.112309 0.877329 0.436075 0.5 
-0.0562502 0.135013 0.0330455 -0.763893 -0.305312 -0.568552 0.727547 0.5 
-0.0666127 0.133021 0.0447044 -0.607932 -0.311858 -0.73018 0.724494 0.5 
-0.0425379 0.155441 -0.00749353 0.031629 0.734587 0.677776 0.424682 0.5 
-0.0545308 0.0714603 0.0397042 0.202354 0.53923 -0.817486 0.682177 0.456916 
-0.0413159 0.0906923 -0.0225881 0.2358 -0.00668534 0.971779 0.72469 0.5 
-0.0172876 0.0921774 0.0536212 0.357927 -0.404406 -0.841632 0.546444 0.5 
-0.00598119 0.0940308 0.0542643 0.0459159 -0.454164 -0.889734 0.455087 0.5 
0.0423724 0.0672563 0.0295801 -0.583747 -0.253228 -0.771437 0.33948 0.5 
0.0285741 0.116909 -0.00391772 -0.602984 -0.697218 0.387682 0.66246 0.5 
-0.0331811 0.0450744 0.0451146 0.570584 -0.186201 -0.799852 0.432059 0.466683 
-0.0539402 0.118566 0.0353731 -0.513375 -0.253091 -0.819995 0.515399 0.5 
0.0422724 0.0795546 -0.00579461 -0.891378 0.0561966 0.449764 0.568535 0.5 
0.0297273 0.0425502 0.0304975 -0.443719 0.7027 -0.556171 0.650152 0.5 
-0.0315639 0.0959331 -0.0236801 0.333932 -0.344069 0.877557 0.474586 0.431409 
0.0381804 0.105121 0.0266947 -0.840134 -0.396857 -0.369702 0.534482 0.490368 
-0.0284988 0.090492 -0.0290854 0.552607 -0.323378 0.768148 0.294426 0.332222 
-0.0173189 0.0437942 0.0432695 0.00785959 0.642715 -0.766065 0.576068 0.5 
0.00376754 0.0477551 0.0502037 -0.112463 0.468723 -0.876157 0.495901 0.44823 
0.0432673 0.0458291 0.0278251 -0.434513 0.577677 -0.691005 0.807573 0.5 
-0.0233322 0.181239 -0.0112893 -0.606327 -0.308229 -0.73305 0.246322 0.458572 
-0.0056258 0.0565038 0.0538818 0.146405 0.320026 -0.936028 0.61481 0.5 
0.00529431 0.0556798 0.0532881 -0.265983 0.300895 -0.915814 0.560812 0.423049 
-0.0883219 0.105757 0.0172983 0.975756 0.195431 -0.0985244 0.604102 0.5 
-0.0566374 0.0470184 0.0305809 0.652894 -0.679118 -0.335452 0 0 
-0.0296243 0.0543188 0.0398951 0.301628 -0.266618 -0.915388 0.676102 0.5 
-0.00597407 0.105897 0.0440669 0.0841001 -0.494754 -0.864954 0.338462 0.5 
-0.0214122 0.0546976 0.044641 0.454321 -0.0913858 -0.886138 0.195646 0.404388 
-0.0161488 0.0574363 0.050904 0.463034 0.327604 -0.823575 0.451613 0.5 
-0.0568305 0.146392 -0.0026426 -0.0499407 -0.263427 0.963386 0.48145 0.5 
-0.0931466 0.119067 0.0179948 0.992683 0.116705 0.0310056 0.570519 0.5 
-0.061862 0.158417 -0.0293026 -0.902038 0.431526 0.0105845 0.690546 0.5 
-0.0855858 0.10684 0.021729 -0.696311 -0.696311 0.174078 0.519516 0.5 
0.0336642 0.0540543 0.0350841 -0.55642 0.273112 -0.784733 0.609925 0.5 
0.042771 0.0560351 0.031559 -0.387782 0.0645706 -0.919487 0.669803 0.5 
-0.0434589 0.117191 0.0317044 -0.167274 -0.575686 -0.800378 0.657986 0.5 
-0.0680962 0.156721 -0.0426174 0.224061 0.626306 0.746684 0.523327 0.5 
0.0272384 0.103156 0.0397058 -0.493911 -0.387821 -0.778233 0.689793 0.5 
-0.0293932 0.178536 -0.0145563 0.757979 -0.521322 0.392035 0.314049 0.5 
-0.0762697 0.0912245 0.0383419 0.617581 -0.0112403 -0.786427 0.647987 0.457049 
-0.0191285 0.0985952 0.0456676 0.23687 -0.584325 -0.776181 0.271215 0.427554 
-0.053091 0.0567402 0.0293963 0.788485 0.456965 -0.411673 0.192432 0.5 
-0.0431978 0.0555777 0.0390838 0.429926 0.0941276 -0.897944 0.311543 0.5 
-0.0833055 0.115643 0.046828 0.449272 0.567717 -0.68982 0.438131 0.5 
0.0144345 0.127081 0.026297 -0.334079 -0.826121 -0.453778 0.479299 0.429147 
-0.0388913 0.123761 0.0249778 -0.294719 -0.744509 -0.599038 0.514489 0.5 
-0.0594359 0.119905 0.0399756 -0.61618 0.0883704 -0.782632 0.634635 0.5 
-0.0702332 0.154262 -0.0312401 0.489785 0.484677 0.724706 0.685413 0.5 
-0.0574473 0.152576 0.0284508 -0.627002 -0.594613 -0.503293 0.93076 0.5 
-0.0480038 0.056366 0.0362663 0.535961 0.509709 -0.67301 0.58186 0.5 
-0.0107262 0.179662 -0.0277472 -0.82002 -0.529833 -0.216435 0.400699 0.458536 
-0.0882293 0.106066 0.00846756 0.940816 0.0956337 0.325147 0.477822 0.5 
-0.078994 0.153984 0.00651862 0.526432 -0.829544 0.186349 0.57436 0.5 
-0.0295675 0.126072 0.0146338 -0.0342298 -0.99283 -0.114526 0.393422 0.5 
-0.0817356 0.15439 0.0177332 0.500692 -0.864269 0.0484516 0.505065 0.5 
-0.0795469 0.104194 -0.00620274 0.648665 -0.179099 0.739701 0.528684 0.5 
-0.0248608 0.122913 0.0245429 0.16733 -0.859801 -0.482435 0.379391 0.5 
-0.0664416 0.159957 -0.0533713 -0.295334 0.847372 0.441291 0.38665 0.5 
-0.0784878 0.0705283 0.0174461 0.777139 0.621444 -0.099313 0.703257 0.5 
-0.00967101 0.173225 -0.0264945 -0.0658423 0.342694 0.937137 0.379771 0.5 
-0.0566284 0.0547031 0.00744563 0.970069 0.233391 0.0670475 0.270787 0.5 
-0.0184015 0.122219 -0.00775134 0.160294 -0.855145 0.492983 0.782181 0.5 
-0.0695952 0.146412 -0.018032 -0.0050497 0.929152 0.369663 0.130446 0.5 
-0.0412517 0.123196 -0.00958087 -0.101418 -0.74931 0.654407 0.590842 0.5 
-0.0684972 0.148194 -0.028726 -0.158621 0.727325 0.667711 0.690046 0.5 
-0.0540036 0.055543 0.0177674 0.840029 0.521292 -0.15035 0.079935 0 
-0.0169203 0.0682168 0.0531499 0.543955 0.241637 -0.80357 0.608033 0.445048 
-0.00607221 0.0677102 0.0564501 0.0555151 0.168419 -0.984151 0.650491 0.470895 
0.00708728 0.0673218 0.0553369 -0.234687 0.118669 -0.9648 0.748671 0.5 
-0.0143174 0.116971 0.037836 0.249224 -0.57463 -0.779543 0.441459 0.5 
0.0538923 0.0557547 0.0266244 -0.674008 0.168465 -0.719259 0.405493 0.41666 
0.00517855 0.0931738 0.0535873 -0.208341 -0.41381 -0.886203 0.395048 0.366076 
-0.0431038 0.0674388 0.0407737 0.181326 0.153248 -0.971409 0.587502 0.5 
-0.0293069 0.0680733 0.041016 0.364875 0.157341 -0.917666 0.650585 0.5 
-0.0379555 0.161954 -0.0128021 0.400894 0.402482 0.822977 0.499753 0.5 
-0.0561165 0.0654329 0.0341979 0.474268 0.458247 -0.751718 0.277414 0.5 
-0.0761707 0.155559 -0.0059272 0.61283 -0.786388 -0.077678 0.708579 0.5 
-0.0552181 0.122506 -0.00946488 -0.00506529 -0.536926 0.843614 0.538005 0.5 
0.0177004 0.105983 -0.0186138 -0.371455 -0.469415 0.801043 0.576137 0.468722 
0.0534583 0.0656375 0.0264336 -0.582681 -0.403803 -0.705284 0.501229 0.5 
-0.0869152 0.0944156 0.00293118 0.926966 -0.0496333 0.371847 0.494536 0.346642 
-0.0764257 0.161707 -0.0297517 0.836192 0.367616 0.406989 0.476378 0.5 
-0.0440959 0.127453 -0.00327875 -0.255377 -0.824869 0.504355 0.853498 0.5 
-0.0312919 0.0798298 0.0434944 0.456729 0.248481 -0.854199 0.693464 0.5 
-0.0549448 0.106348 -0.0185625 0.223474 -0.310459 0.923945 0.484023 0.5 
-0.0723735 0.110057 -0.00943257 0.466346 -0.229805 0.854231 0.44421 0.5 
-0.0553659 0.0919829 -0.0211783 0.218047 -0.0720085 0.973278 0.619673 0.5 
-0.0488091 0.0660127 0.0373959 0.299451 0.569589 -0.76544 0.829801 0.5 
-0.0473086 0.145156 0.00688469 -0.992807 0.113014 -0.0395162 0.636632 0.45621 
-0.0803913 0.129634 -0.00469755 0.526387 -0.0409428 0.849259 0.386393 0.5 
-0.041802 0.105934 -0.0198692 0.0989416 -0.299394 0.948986 0.79815 0.5 
-0.00632139 0.0931652 -0.0328935 -0.183495 -0.413421 0.891859 0.564234 0.5 
-0.00597054 0.106138 -0.0222282 -0.0429894 -0.567002 0.822594 0.740261 0.5 
-0.0294827 0.158293 -0.00619266 -0.350206 0.936264 -0.027671 0.209483 0.5 
-0.0177953 0.106289 -0.0217771 0.0476587 -0.57934 0.813692 0.723165 0.5 
-0.0885261 0.137839 0.0393964 0.794723 -0.435136 -0.423169 0.651389 0.5 
-0.0674935 0.128392 -0.00863471 0.0352944 -0.15488 0.987303 0.737784 0.5 
0.0463693 0.0715128 0.0216754 -0.729119 -0.356524 -0.584189 0.461473 0.448797 
-0.0409565 0.117168 -0.0145809 -0.0220788 -0.592865 0.804999 0.602235 0.5 
-0.0106656 0.167541 -0.0199013 -0.766567 0.474956 -0.432194 0.359593 0.5 
-0.0532547 0.157456 -0.00281896 0.658531 -0.182661 0.730049 0.292939 0.5 
0.00530988 0.0933129 -0.0301852 -0.246294 -0.421535 0.872724 0.75972 0.5 
-0.0773436 0.0727226 0.0266546 0.696225 0.612059 -0.375039 0.757943 0.5 
-0.0625087 0.149934 -0.0150319 -0.942465 0.330315 -0.0515001 0.415531 0.480025 
-0.0688014 0.0685726 0.0306649 0.470075 0.677272 -0.565978 0.49936 0.45677 
-0.0545252 0.0808478 -0.0201707 0.115937 0.274061 0.954698 0.75515 0.5 
-0.0436768 0.078916 0.0428855 0.013501 0.153987 -0.987981 0.696934 0.5 
-0.0185748 0.0789703 0.0557353 0.359147 0.166326 -0.918341 0.607912 0.5 
-0.00599993 0.0794548 0.0578008 0.0113305 -0.0619607 -0.998014 0.791265 0.5 
0.00706485 0.0811917 0.0558187 -0.230453 -0.0725115 -0.970378 0.523043 0.5 
-0.0850269 0.146034 0.00585954 0.786731 -0.455049 0.417114 0.583528 0.5 
0.0370111 0.110397 0.00265294 -0.797476 -0.559048 0.22693 0.516602 0.481774 
-0.0683084 0.0803316 0.0407109 0.389508 0.323518 -0.862334 0.610448 0.476331 
-0.055894 0.0792594 0.0435335 0.096153 0.254875 -0.962182 0.634349 0.5 
0.0381456 0.0881056 -0.0138675 -0.757919 -0.143287 0.636418 0.676152 0.5 
-0.0642837 0.0396418 0.039624 0.840022 -0.165329 -0.516749 0.532543 0.5 
-0.0698696 0.168536 -0.0313319 -0.353284 -0.871046 -0.341277 0.458525 0.324439 
-0.061796 0.155741 -0.0207923 -0.931811 -0.234533 0.276988 0.443336 0.5 
-0.0622848 0.16236 -0.0396288 -0.945478 -0.207186 0.251287 0.427869 0.464762 
-0.0686864 0.0923704 0.0421978 0.412859 -0.111547 -0.903938 0.59211 0.5 
-0.049353 0.139298 0.0147955 -0.933284 -0.338359 -0.120391 0.761861 0.5 
-0.0784177 0.110126 0.0417886 0.345875 0.784043 -0.51541 0.498936 0.5 
0.0179416 0.0792747 0.0518862 -0.474968 -0.0346106 -0.879322 0.491924 0.475524 
0.00532732 0.123661 -0.00997105 -0.103037 -0.762102 0.639206 0.555015 0.5 
-0.0556774 0.0935206 0.044207 0.0304261 -0.0879841 -0.995657 0.778337 0.5 
-0.0431924 0.0921154 0.0432689 0.0157425 -0.0701708 -0.997411 0.605881 0.5 
-0.0298626 0.0940124 0.0444805 0.306802 -0.318885 -0.896764 0.668172 0.5 
0.0205955 0.087113 0.0492325 -0.462835 -0.208012 -0.861693 0.678548 0.5 
0.01721 0.127663 0.00512593 -0.431809 -0.886842 0.164478 0.595962 0.5 
-0.0290125 0.106719 -0.0207479 0.173695 -0.470625 0.865068 0.809584 0.5 
0.0185443 0.0948112 0.0477587 -0.330484 -0.397939 -0.855818 0.669841 0.5 
-0.00588676 0.116622 -0.0160049 0.0145636 -0.585822 0.810309 0.826286 0.5 
-0.0528191 0.162649 0.00296711 0.573179 -0.726923 -0.378218 0.343566 0.5 
0.0358078 0.0958594 -0.0120328 -0.727056 -0.268897 0.631731 0.738943 0.5 
-0.0912064 0.131415 0.0295307 0.992023 -0.0837361 -0.0942218 0.816274 0.5 
-0.067874 0.106952 0.0403725 -0.0139429 0.184537 -0.982727 0.481571 0.5 
-0.0441636 0.104918 0.0401706 -0.0280775 -0.414701 -0.909524 0.648927 0.395789 
0.00749586 0.09835 0.0488255 -0.727607 0.485071 0.485071 0.46146 0.5 
-0.0554961 0.103898 0.0411405 -0.0401736 -0.371944 -0.927385 0.529374 0.5 
-0.0669044 0.115717 0.0473479 -0.453785 0.431789 -0.779511 0.429195 0.5 
-0.0501524 0.140326 0.00258818 -0.719097 0.112989 0.685663 0.569746 0.5 
-0.0554508 0.13242 -0.00485445 -0.443781 -0.353846 0.823318 0.673026 0.5 
-0.014752 0.181897 -0.0262781 0.375149 -0.168849 0.911457 0.40888 0.5 
-0.029558 0.161783 -0.0143368 0.133783 0.533656 0.835053 0.852313 0.5 
-0.0561854 0.111277 0.0373713 -0.207789 -0.223878 -0.952209 0.588374 0.5 
-0.040984 0.110496 0.0370883 -0.0552118 -0.516803 -0.854322 0.553647 0.5 
-0.0320055 0.110468 0.0370438 -0.0106399 -0.619026 -0.785298 0.565129 0.5 
0.0250033 0.110611 0.0368459 -0.458659 -0.522806 -0.718544 0.631257 0.5 
-0.046987 0.147434 -0.00222536 -0.57513 0.512002 0.638028 0.521986 0.5 
-0.0183407 0.0352362 0.0507938 -0.522675 0.621796 -0.58325 0.291685 0.457265 
-0.0178406 0.170484 -0.0181143 -0.993982 0.0701415 -0.0841421 0.809186 0.5 
-0.0569472 0.0349416 0.0423717 0.151521 0.646845 -0.747417 0.341981 0.5 
0.00583339 0.0351076 0.0420914 -0.147263 0.674551 -0.723391 0.261253 0.345588 
-0.0428024 0.0351574 0.0416872 -0.0106134 0.845393 -0.534039 0.193197 0.5 
-0.066462 0.104777 -0.0148582 0.422974 -0.247407 0.871713 0.608847 0.5 
0.0257452 0.0459137 0.0381185 -0.632961 0.424312 -0.647549 0.444171 0.5 
0.0379451 0.0817167 -0.0141547 -0.769333 0.189328 0.610149 0.644934 0.5 
-0.0844262 0.0797714 0.0186332 0.885649 0.401463 -0.233351 0.67606 0.5 
0.0532504 0.04759 0.0181903 -0.684343 0.681316 -0.259774 0.342211 0.398387 
0.0186424 0.0536035 0.046215 -0.472218 0.26686 -0.840117 0.589102 0.5 
0.00732515 0.118243 -0.0153012 -0.14588 -0.57401 0.805749 0.54369 0.457314 
-0.0314704 0.157066 0.000976216 -0.306616 0.945576 -0.108961 0.445666 0.44081 
0.0286229 0.056876 0.0407635 -0.589346 0.246541 -0.769343 0.635463 0.446542 
0.0581591 0.0550016 0.0180254 -0.93565 0.326733 -0.133435 0.474964 0.5 
0.016864 0.089935 -0.0269104 -0.412888 -0.313906 0.854978 0.546403 0.5 
0.0145778 0.0585769 0.0501691 -0.440989 0.252751 -0.861189 0.387785 0.5 
0.0367248 0.0918184 0.0366248 -0.765021 -0.162038 -0.623286 0.726421 0.5 
-0.0198801 0.166404 -0.0112699 -0.669059 -0.440495 -0.598602 0.688671 0.5 
0.0150294 0.0677357 0.0520671 -0.43793 0.15076 -0.886278 0.554385 0.463079 
0.0210524 0.0681161 0.0484346 -0.55373 0.154115 -0.81831 0.414803 0.412252 
0.0298776 0.0679936 0.0419172 -0.596618 0.132324 -0.791541 0.611901 0.5 
0.0368358 0.0678495 0.036641 -0.717152 0.111541 -0.687933 0.593561 0.5 
0.0574748 0.0682218 0.0171425 -0.833444 -0.511859 -0.208259 0.550839 0.448044 
0.0316842 0.0785087 -0.019208 -0.659481 0.0960245 0.745563 0.760295 0.5 
-0.0760271 0.175704 -0.0506937 0.840572 -0.017965 0.541402 0.340571 0.5 
-0.0655396 0.0607885 0.0175707 0.489777 0.856935 -0.160563 0.414933 0.425841 
-0.0806026 0.081447 0.0306516 0.74465 0.35388 -0.565921 0.756683 0.5 
0.0189749 0.121506 -0.00694565 -0.455545 -0.672444 0.58335 0.549 0.5 
0.030684 0.0795461 0.0431507 -0.629275 0.023019 -0.776842 0.572664 0.5 
0.0371888 0.0792484 0.0367937 -0.740336 0.0229008 -0.671846 0.505468 0.5 
0.0419366 0.0795911 0.0295911 -0.888874 -0.0690234 -0.452922 0.645662 0.5 
0.046032 0.0793694 0.0177694 -0.913919 -0.304669 -0.268195 0.458504 0.467907 
-0.0787921 0.0707773 0.00685585 0.783113 0.608657 0.127558 0.704234 0.277826 
-0.0293987 0.115917 -0.0147065 0.0205164 -0.674941 0.737586 0.856895 0.5 
-0.0869924 0.113518 0.00410409 0.932746 0.255533 0.254338 0.344807 0.5 
-0.0142186 0.174013 -0.0259807 0.551319 0.401886 0.731119 0.439072 0.5 
0.0174795 0.0352131 -0.00592856 -0.345601 0.90651 0.242487 0 0 
0.0162141 0.0358475 -0.0162131 -0.343771 0.847086 0.405298 0.173751 0.5 
0.0193248 0.0358322 0.0313206 -0.283077 0.941614 -0.182292 0.156956 0.287305 
0.0435544 0.0411101 0.00579916 -0.433822 0.881087 0.188372 0.245023 0.5 
0.0226191 0.0406052 -0.00793544 -0.545305 0.719569 0.429958 0.173629 0.5 
0.0191348 0.042782 -0.0192095 -0.580909 0.564459 0.586456 0.367832 0.5 
0.0414633 0.0456301 -0.00354513 -0.393876 0.609469 0.688047 0.514406 0.5 
0.0436925 0.0411968 0.01772 -0.444992 0.872911 -0.200025 0.265572 0.5 
0.0512872 0.0463959 0.00580531 -0.678861 0.691184 0.247815 0.199267 0.5 
0.0285777 0.105181 -0.0142381 -0.473581 -0.498235 0.726281 0.728425 0.5 
0.0306748 0.0445124 -0.00617993 -0.499506 0.581676 0.641986 0.464947 0.5 
-0.0184118 0.0948059 -0.0307434 0.223005 -0.561601 0.796789 0.520871 0.5 
-0.0315484 0.0343023 -0.0284081 0.0714246 0.811735 0.579641 0.16856 0.5 
0.0260381 0.0475902 -0.0165794 -0.628648 0.567894 0.531318 0.515417 0.5 
0.0554197 0.0686378 0.00589653 -0.771616 -0.467805 0.431007 0.629664 0.372945 
0.0520374 0.055073 -0.0024816 -0.673633 0.199003 0.71177 0.592036 0.5 
0.0567375 0.0542224 0.00512483 -0.938664 0.184544 0.291297 0.511629 0.5 
0.0428049 0.0553286 -0.00604704 -0.431779 0.173632 0.885109 0.434179 0.5 
-0.0620037 0.167422 -0.0527165 -0.999167 -0.0395436 0.0100635 0.538383 0.466596 
0.0341128 0.0541776 -0.00948346 -0.605983 0.389383 0.693661 0.591066 0.5 
0.029518 0.0560564 -0.0175875 -0.709453 0.292641 0.641122 0.574224 0.5 
-0.0177887 0.115911 -0.0157838 0.0766891 -0.639746 0.764751 0.559736 0.5 
-0.0417838 0.0357602 -0.0264107 0.757821 0.156809 0.633339 0.0979878 0.5 
-0.00518939 0.043046 -0.0273333 -0.176959 0.480664 0.858864 0.274297 0.5 
-0.0664059 0.0343649 -0.00416668 0.650209 0.500593 0.571521 0.135623 0.5 
0.0475414 0.0712174 0.00542617 -0.704063 -0.524832 0.47838 0.590477 0.5 
0.0249138 0.0825163 -0.0245877 -0.532014 -0.0605005 0.844571 0.759593 0.5 
-0.0299024 0.0426031 -0.0283179 0.37255 -0.356378 0.856855 0.537642 0.5 
0.0218121 0.0515865 -0.0236492 -0.555757 0.36294 0.747936 0.56032 0.5 
-0.0271537 0.0351608 0.0509267 0.232842 0.680679 -0.694594 0.96808 0.5 
0.0161181 0.11563 -0.0145451 -0.427324 -0.520315 0.739369 0.45799 0.403894 
0.031738 0.0679983 -0.0183532 -0.66163 0.11422 0.74108 0.581486 0.5 
0.0418226 0.0675201 -0.00551555 -0.73527 -0.13473 0.664248 0.572144 0.5 
0.0514871 0.0637279 -0.00174794 -0.520729 -0.3821 0.76344 0.518067 0.5 
-0.0893303 0.128309 0.0428023 0.888111 -0.0928223 -0.450159 0.633972 0.457764 
0.0459385 0.0796307 0.00579632 -0.938892 -0.226872 0.258864 0.323813 0.5 
-0.0705433 0.149897 -0.0387319 0.970142 0 -0.242536 0.143598 0.5 
-0.0429617 0.0430242 -0.0176288 0.657932 -0.570155 0.491986 0.371561 0.5 
-0.0719677 0.177848 -0.0474604 -0.289326 -0.784986 -0.547802 0.498199 0.393806 
-0.0760529 0.177651 -0.0471457 0.369812 -0.846424 -0.383152 0.200482 0.341482 
0.0304173 0.118495 0.00573814 -0.729103 -0.676293 0.105053 0.517745 0.5 
-0.0771451 0.167706 -0.0298798 0.732703 -0.628601 -0.260782 0.259817 0.452429 
0.0202668 0.092861 -0.0237363 -0.432862 -0.389889 0.812783 0.630702 0.48336 
-0.0254815 0.0798697 0.0510546 0.602174 0.192059 -0.774919 0.764034 0.5 
-0.0650541 0.0353259 0.0162237 0.773778 0.54342 -0.325518 0.352362 0.5 
-0.0647676 0.0350792 0.0294481 0.951593 0.286291 0.111843 0.161121 0.384305 
-0.0644267 0.0414591 0.0304476 0.796981 -0.597678 0.0871964 0.206373 0.5 
-0.06432 0.0352261 0.0387914 0.554666 0.754926 -0.349903 0.349097 0.5 
-0.0676 0.0340299 0.00590491 0.693382 0.71649 -0.0765652 0.228898 0.5 
-0.0679534 0.0418588 0.00668394 0.914274 -0.391001 -0.105934 0.30841 0.5 
-0.0573497 0.0431548 0.0200229 0.868679 -0.490123 -0.0719438 0 0 
-0.0634632 0.0414321 0.0142052 0.645938 -0.613012 -0.454951 0.258252 0.450399 
-0.059413 0.0471382 0.00628538 0.67477 -0.738027 -0.00156553 0.460736 0.319245 
-0.0233834 0.0656416 0.0450976 0.667035 0.219692 -0.711899 0.709715 0.5 
-0.063538 0.071665 0.0379463 0.307994 0.636467 -0.707142 0.556494 0.5 
-0.0193036 0.0810128 -0.0384318 0.0286145 -0.144774 0.989051 0.500126 0.449734 
-0.0427206 0.0343557 -0.0191302 0.136804 0.985571 0.0996715 0.176398 0.205782 
-0.00690237 0.03464 -0.0202171 -0.0806958 0.994496 0.0668197 0.15305 0.5 
-0.0656787 0.0408332 -0.00401793 0.652724 -0.565986 0.503598 0.169982 0.409113 
-0.0383907 0.0419218 -0.0264039 0.394214 -0.472815 0.788062 0.3765 0.5 
-0.0556585 0.0432866 -0.00758834 0.569615 -0.382025 0.727734 0.62257 0.5 
-0.0416785 0.0420276 -0.00999679 -0.0951976 0.685272 0.722038 0.340556 0.5 
-0.0322294 0.0446593 -0.0167499 0.740598 0.00763976 0.671905 0.299501 0.5 
-0.0307385 0.0563307 -0.018517 0.864331 0.132863 0.485055 0.265727 0.5 
-0.0429026 0.0561897 -0.0113043 0.38566 0.0882962 0.918406 0.555432 0.5 
-0.0550285 0.0566557 -0.00531375 0.589751 0.31584 0.743262 0.527245 0.5 
-0.0261858 0.0568836 -0.0282694 0.627927 0.175135 0.758311 0.366688 0.5 
-0.0552189 0.117461 -0.0133744 0.148149 -0.496153 0.855502 0.568329 0.5 
-0.0190658 0.0546695 -0.0318646 0.221397 0.326421 0.91893 0.484351 0.5 
-0.0687629 0.0686694 -0.00654941 0.513105 0.665183 0.542452 0.168435 0.5 
-0.0730504 0.06542 0.00552859 0.590071 0.781854 0.201294 0.275779 0.5 
-0.0207234 0.0672793 -0.036553 0.40515 0.306183 0.861455 0.45692 0.5 
-0.0290792 0.067426 -0.0290521 0.811621 0.238249 0.533393 0.452259 0.5 
-0.0328056 0.0664637 -0.0195215 0.685982 0.247169 0.684351 0.908229 0.5 
-0.0177608 0.0343319 -0.0259142 -0.122636 0.686991 0.716243 0.174612 0.215481 
-0.0773687 0.0732571 -0.00409771 0.685153 0.58592 0.43274 0.293636 0.296358 
0.0151616 0.126104 -0.00266395 -0.322354 -0.840692 0.435116 0.542796 0.5 
-0.0845255 0.0800572 0.00530702 0.896851 0.405923 0.175739 0.615888 0.5 
-0.0793517 0.0798559 -0.00640565 0.750868 0.3598 0.553842 0.260107 0.5 
-0.0309728 0.0794701 -0.0312475 0.804261 0.0579997 0.591439 0.64535 0.304239 
-0.0355144 0.081801 -0.0226887 0.613809 0.152286 0.774627 0.930953 0.5 
-0.068141 0.0801227 -0.0164278 0.420274 0.283962 0.861821 0.485274 0.5 
-0.0512932 0.034227 -0.0129013 0.705961 0.190932 0.682029 0.159841 0.5 
0.0161924 0.080479 -0.0292174 -0.461593 -0.0888293 0.882633 0.750174 0.5 
-0.0144478 0.0879274 -0.0380297 -0.0383966 -0.336652 0.940846 0.689122 0.5 
-0.0173157 0.0432674 -0.0282906 0.070359 0.268207 0.960788 0.230538 0.5 
-0.0193328 0.0979251 -0.024792 0.970142 0 -0.242536 0.661276 0.5 
-0.0555479 0.0336816 -0.00619013 0.285481 0.860785 0.421367 0.1361 0.5 
0.00702627 0.0978418 -0.0246055 0 0.707107 -0.707107 0.732067 0.326346 
-0.0148892 0.126068 -0.00252126 0.27277 -0.905759 0.324342 0.467449 0.5 
0.0175205 0.0552114 -0.0272756 -0.430625 0.223028 0.87454 0.685576 0.5 
-0.00953661 0.0794104 -0.0379859 -0.138167 -0.0765227 0.987448 0.670336 0.467319 
0.00524266 0.0391336 -0.021947 -0.0423614 0.74419 0.666623 0.540697 0.5 
0.0175653 0.0679339 -0.0289388 -0.421606 0.0719189 0.903922 0.690366 0.5 
-0.0057907 0.128077 -0.00285105 0.126469 -0.90024 0.416622 0.714685 0.5 
0.00626556 0.128047 -0.0031705 -0.0832569 -0.914203 0.396611 0.574275 0.5 
0.00559979 0.0346604 -0.0179318 0.107783 0.993902 0.0232839 0.278473 0.5 
0.029824 0.0359142 0.00488977 -0.273455 0.921628 0.275363 0.290019 0.5 
0.00625193 0.0459623 -0.0263782 -0.207752 0.441543 0.872857 0.665265 0.460024 
0.0143253 0.0473484 -0.0251513 -0.312185 0.484873 0.816969 0.546545 0.456757 
0.00604086 0.0555073 -0.0304314 -0.229228 0.277422 0.933002 0.840924 0.5 
-0.00613413 0.0546372 -0.032635 -0.0927602 0.298367 0.949933 0.634884 0.475184 
-0.0346694 0.057124 -0.0114953 0.516854 0.15083 0.842682 0.102172 0.5 
-0.00684543 0.0679742 -0.0359406 -0.150631 0.226578 0.962275 0.670518 0.457134 
0.0056558 0.0676237 -0.0329199 -0.256152 0.153488 0.954373 0.79033 0.385997 
-0.0569732 0.0651628 -0.00958219 0.283699 0.573825 0.76827 0.452904 0.5 
-0.0422796 0.0699944 -0.0161463 0.271454 0.413126 0.869275 0.543504 0.5 
-0.0175719 0.0705473 -0.0382261 0.0623695 0.175234 0.982549 0.581028 0.470136 
-0.055586 0.0722983 -0.0161218 0.150443 0.505697 0.849493 0.401473 0.5 
-0.0637884 0.0712697 -0.0138535 0.345799 0.59535 0.725246 0.437166 0.5 
0.00568561 0.0790547 -0.0339189 -0.311415 -0.0812447 0.946795 0.719764 0.5 
-0.00338429 0.0804511 -0.0367226 -0.246622 -0.102689 0.963656 0.799862 0.5 
-0.0248988 0.0815004 -0.0371078 0.441838 -0.162167 0.882316 0.39297 0.457854 
-0.0412513 0.0791378 -0.0197746 0.232102 0.278837 0.931868 0.273711 0.5 
-0.0735819 0.0777026 -0.0122023 0 -0.948683 0.316228 0.445372 0.5 
-0.018062 0.0352627 -0.0195401 0.014797 0.943253 -0.331747 0.319674 0.5 
-0.031577 0.0358487 -0.0179669 -0.119 0.746079 -0.655138 0.482378 0.5 
-0.00602034 0.0381237 -0.0145184 -0.0505386 0.934029 -0.353603 0.909294 0.5 
-0.0177811 0.0382546 -0.0154503 0.086247 0.915377 -0.393251 0.887215 0.5 
0.00753447 0.0355596 -0.00650063 0.441783 0.894174 0.0726744 0.962688 0.5 
0.00430437 0.0384017 -0.0071754 0.268088 0.957912 0.102632 0.927286 0.5 
-0.00593935 0.038948 -0.00592129 0.00801949 0.999882 -0.0131035 0.816802 0.5 
-0.0176142 0.0386055 -0.00584508 -0.0165446 0.999739 -0.0157305 0.759701 0.5 
-0.0430308 0.0341391 -0.00565972 -0.398968 0.874466 0.275924 0.772585 0.5 
0.0189222 0.0351076 0.00499769 -0.0592732 0.998218 0.00687066 0.579133 0.5 
-0.0299129 0.0383912 -0.00582677 0.0553404 0.92298 0.380847 0.752109 0.5 
0.00512066 0.0348398 0.00558498 0.201369 0.97143 0.125592 0.588251 0.5 
0.00103528 0.0375917 0.000952222 0.398381 0.886889 0.233923 0.441385 0.5 
-0.00584714 0.0383419 0.00590803 0.173602 0.979231 0.104736 0.728422 0.5 
-0.0424621 0.0343144 0.00590597 -0.00232601 0.999211 -0.0396546 0.266658 0.5 
-0.017873 0.0383166 0.00599471 -0.0208701 0.999459 0.0254103 0.753895 0.5 
0.028662 0.0358411 0.0187496 -0.240682 0.962081 -0.128346 0.360666 0.5 
-0.055026 0.0336204 0.00583816 0.0513969 0.99858 -0.0139916 0.742717 0.5 
-0.0284733 0.0381489 0.00441853 -0.0191499 0.999435 0.0276377 0.456211 0.5 
-0.000947006 0.0357374 0.0103469 0.387276 0.915476 0.109186 0.779853 0.5 
0.0193224 0.0351814 0.0196616 -0.0605926 0.997434 -0.0381303 0.180494 0.5 
-0.0342325 0.033759 0.00717517 0.0841935 0.990059 -0.11267 0.152905 0 
0.00536022 0.0345956 0.0179871 0.218611 0.95684 -0.191486 0.676527 0.5 
-0.000385714 0.0351459 0.0134171 0.295504 0.955288 -0.0101073 0.848157 0.5 
0.0334119 0.0376179 0.0210082 -0.297541 0.88074 -0.368464 0.70177 0.5 
-0.00589791 0.0381782 0.0177062 0.237214 0.964724 -0.114183 0.797449 0.5 
-0.0352445 0.0350571 0.0178257 -0.20904 0.977289 -0.034765 0.572312 0.5 
-0.0178078 0.0381962 0.0178114 -0.0243932 0.999528 -0.0187031 0.753708 0.5 
-0.0261898 0.0377592 0.0177044 -0.103327 0.994533 -0.015078 0.146481 0.5 
-0.0563247 0.0336762 0.0175265 0.18887 0.981747 -0.0223643 0.458851 0.5 
0.00114114 0.037661 0.0223414 0.287663 0.908574 -0.302892 0.978558 0.5 
0.0100253 0.0355029 0.029656 0.166712 0.979343 -0.11443 0.701449 0.5 
0.00550127 0.0385556 0.0296609 0.290768 0.928723 -0.230061 0.996029 0.5 
-0.00596581 0.0388946 0.0299252 0.0318896 0.988936 -0.144875 0.805634 0.5 
-0.0330745 0.0355217 0.0292236 -0.184157 0.98289 0.0036245 0.263742 0.5 
-0.0277717 0.0382563 0.0322865 -0.202951 0.975225 -0.0880179 0.074682 0.5 
-0.0179091 0.0385902 0.0296167 -0.0527459 0.979254 -0.195654 0.782021 0.5 
-0.0419404 0.0343698 0.0299668 -0.072939 0.995871 -0.0540455 0.109729 0 
0.015243 0.0356116 0.0412692 -0.41955 0.716437 -0.557401 0.759188 0.5 
-0.0554301 0.0342555 0.0297952 0.0849009 0.995833 -0.0332834 0.808252 0.5 
-0.0660515 0.0611144 0.00585548 0.514065 0.852726 0.092716 0.442355 0.5 
-0.00654912 0.0350372 0.0453959 -0.23762 0.336659 -0.911152 0.139343 0 
-0.0307826 0.0347596 0.0432959 0.458232 0.645591 -0.610931 0.154826 0.5 
-0.0180834 0.0348142 0.0458772 -0.340796 0.882142 -0.32509 0.143796 0.5 
3 164 94 98 
3 224 335 49 
3 331 350 376 
3 124 122 237 
3 61 89 69 
3 61 161 94 
3 24 89 50 
3 109 25 35 
3 27 34 152 
3 444 443 435 
3 94 35 153 
3 3 61 69 
3 24 69 89 
3 38 218 104 
3 22 42 39 
3 14 24 34 
3 290 166 371 
3 226 76 224 
3 204 197 72 
3 82 3 14 
3 13 81 23 
3 99 13 23 
3 23 110 30 
3 110 2 30 
3 166 265 371 
3 90 61 3 
3 34 24 50 
3 293 167 207 
3 80 78 85 
3 61 94 164 
3 84 238 80 
3 4 161 61 
3 132 149 64 
3 196 22 228 
3 59 46 242 
3 179 84 80 
3 265 96 371 
3 52 258 207 
3 121 127 141 
3 343 168 346 
3 232 227 220 
3 232 243 227 
3 232 246 243 
3 57 126 56 
3 57 130 126 
3 221 232 220 
3 4 61 90 
3 134 80 85 
3 176 217 175 
3 4 0 161 
3 78 21 50 
3 126 130 129 
3 56 126 129 
3 111 182 201 
3 96 70 371 
3 89 164 98 
3 123 6 55 
3 197 87 72 
3 416 419 412 
3 245 80 179 
3 21 78 36 
3 61 164 89 
3 67 132 64 
3 150 149 132 
3 384 387 325 
3 214 221 112 
3 214 233 232 
3 221 214 232 
3 244 246 232 
3 233 244 232 
3 244 252 246 
3 244 143 119 
3 252 244 119 
3 127 142 141 
3 67 150 132 
3 82 90 3 
3 112 180 214 
3 244 253 143 
3 111 201 269 
3 37 74 63 
3 133 150 67 
3 118 133 67 
3 133 180 150 
3 191 214 180 
3 181 191 180 
3 191 234 233 
3 214 191 233 
3 234 244 233 
3 234 7 244 
3 244 98 253 
3 253 98 143 
3 216 217 115 
3 181 180 133 
3 15 16 219 
3 254 98 244 
3 7 254 244 
3 74 11 63 
3 14 3 24 
3 3 69 24 
3 217 216 175 
3 85 78 50 
3 73 78 80 
3 7 98 254 
3 105 133 118 
3 1 248 196 
3 48 241 100 
3 42 156 39 
3 149 173 344 
3 135 133 105 
3 106 135 105 
3 31 7 234 
3 148 31 234 
3 89 98 7 
3 31 89 7 
3 235 84 230 
3 14 27 236 
3 106 125 135 
3 19 20 62 
3 131 54 159 
3 34 50 21 
3 82 14 236 
3 201 52 43 
3 310 308 280 
3 131 159 54 
3 271 310 280 
3 27 14 34 
3 177 89 31 
3 238 73 80 
3 130 176 175 
3 354 331 381 
3 129 130 175 
3 125 136 135 
3 251 52 201 
3 106 56 125 
3 56 129 136 
3 125 56 136 
3 129 175 174 
3 136 129 174 
3 175 216 215 
3 174 175 215 
3 115 114 215 
3 216 115 215 
3 134 85 31 
3 85 177 31 
3 50 89 177 
3 85 50 177 
3 179 80 245 
3 400 407 367 
3 263 83 121 
3 217 179 115 
3 149 132 64 
3 178 187 116 
3 142 178 116 
3 326 120 319 
3 57 83 267 
3 304 391 294 
3 355 354 359 
3 128 29 11 
3 267 273 130 
3 48 16 10 
3 301 302 266 
3 196 66 22 
3 230 84 217 
3 247 13 243 
3 110 81 13 
3 271 178 266 
3 110 13 247 
3 278 277 267 
3 48 10 329 
3 258 11 275 
3 1 196 228 
3 154 247 243 
3 154 110 247 
3 263 141 270 
3 154 60 110 
3 60 154 110 
3 154 60 110 
3 11 74 37 
3 274 5 51 
3 252 154 243 
3 119 252 243 
3 109 110 60 
3 39 2 110 
3 109 39 110 
3 32 128 29 
3 32 128 11 
3 309 300 311 
3 252 119 154 
3 73 145 255 
3 67 64 259 
3 32 29 128 
3 258 275 43 
3 154 119 60 
3 119 109 60 
3 137 256 248 
3 270 267 83 
3 235 238 84 
3 267 130 57 
3 258 32 11 
3 302 310 271 
3 51 238 235 
3 266 302 271 
3 5 36 255 
3 51 235 230 
3 51 145 73 
3 286 51 230 
3 287 274 286 
3 119 25 109 
3 10 40 289 
3 120 48 329 
3 274 51 286 
3 276 230 217 
3 10 16 15 
3 51 5 145 
3 43 11 201 
3 176 276 217 
3 143 25 119 
3 158 207 167 
3 360 321 357 
3 130 273 276 
3 122 198 237 
3 270 278 267 
3 77 218 38 
3 15 6 40 
3 280 187 178 
3 271 280 178 
3 258 207 32 
3 66 58 22 
3 279 287 278 
3 155 139 172 
3 121 141 263 
3 288 41 274 
3 287 288 274 
3 276 176 130 
3 289 288 205 
3 274 41 5 
3 288 287 279 
3 329 10 289 
3 16 100 219 
3 127 178 142 
3 273 267 276 
3 252 119 243 
3 116 279 141 
3 41 123 5 
3 116 288 279 
3 142 116 141 
3 207 158 32 
3 276 277 230 
3 101 102 163 
3 299 298 294 
3 287 286 278 
3 5 255 145 
3 131 159 70 
3 275 11 43 
3 32 158 250 
3 205 288 116 
3 73 36 78 
3 120 329 319 
3 297 391 300 
3 84 179 217 
3 17 77 38 
3 255 36 73 
3 263 270 83 
3 249 248 1 
3 286 230 277 
3 11 37 66 
3 43 52 258 
3 267 277 276 
3 279 278 270 
3 141 279 270 
3 51 73 238 
3 47 36 5 
3 201 66 269 
3 201 11 66 
3 309 310 302 
3 300 309 302 
3 182 33 251 
3 278 286 277 
3 243 246 252 
3 416 427 419 
3 96 131 70 
3 66 256 111 
3 65 335 189 
3 113 374 407 
3 144 139 155 
3 226 224 139 
3 358 400 396 
3 30 91 203 
3 226 139 144 
3 46 328 242 
3 307 304 298 
3 70 159 54 
3 103 265 284 
3 443 261 446 
3 17 38 28 
3 88 200 239 
3 72 170 211 
3 138 17 28 
3 35 1 228 
3 295 299 294 
3 18 131 140 
3 18 59 131 
3 207 258 52 
3 188 70 54 
3 104 87 197 
3 222 48 120 
3 325 326 311 
3 326 281 120 
3 54 159 292 
3 386 299 295 
3 138 59 17 
3 48 100 16 
3 59 242 17 
3 296 121 83 
3 10 15 40 
3 242 91 17 
3 225 9 211 
3 314 322 384 
3 326 325 281 
3 170 225 211 
3 17 91 77 
3 144 76 226 
3 155 9 225 
3 159 131 28 
3 172 139 170 
3 131 138 28 
3 281 264 120 
3 264 222 120 
3 139 155 225 
3 139 225 170 
3 314 325 313 
3 386 295 390 
3 292 159 28 
3 132 149 344 
3 424 427 416 
3 49 335 65 
3 314 313 304 
3 111 269 66 
3 9 71 72 
3 211 9 72 
3 306 316 353 
3 307 314 304 
3 325 311 313 
3 40 41 288 
3 289 40 288 
3 40 6 41 
3 6 123 41 
3 22 39 109 
3 165 312 76 
3 299 307 298 
3 144 165 76 
3 312 107 76 
3 376 381 331 
3 165 107 312 
3 155 172 330 
3 35 228 22 
3 45 184 160 
3 42 62 156 
3 2 39 62 
3 58 42 22 
3 49 71 9 
3 280 116 187 
3 280 205 116 
3 155 330 144 
3 280 289 205 
3 319 280 308 
3 162 77 20 
3 20 77 91 
3 329 289 280 
3 319 329 280 
3 156 62 39 
3 372 408 375 
3 190 1 0 
3 1 35 0 
3 42 19 62 
3 35 161 0 
3 190 0 97 
3 35 22 109 
3 76 53 224 
3 161 35 94 
3 49 9 155 
3 224 49 155 
3 29 63 11 
3 160 162 19 
3 76 333 53 
3 153 25 143 
3 71 49 65 
3 2 20 30 
3 62 20 2 
3 55 8 5 
3 169 0 4 
3 6 8 55 
3 35 25 153 
3 160 218 162 
3 218 77 162 
3 15 334 6 
3 334 8 6 
3 332 76 93 
3 8 47 5 
3 98 153 143 
3 94 153 98 
3 219 334 15 
3 332 333 76 
3 93 76 107 
3 100 334 219 
3 160 19 45 
3 19 162 20 
3 340 132 344 
3 45 19 42 
3 27 47 8 
3 27 36 47 
3 80 115 179 
3 45 42 58 
3 71 184 45 
3 236 27 8 
3 334 236 8 
3 332 93 333 
3 27 152 36 
3 223 64 340 
3 236 334 117 
3 152 21 36 
3 134 148 115 
3 115 148 114 
3 152 34 21 
3 5 123 55 
3 337 68 191 
3 333 93 282 
3 256 66 196 
3 135 174 347 
3 183 180 195 
3 117 285 236 
3 182 111 63 
3 354 318 352 
3 114 234 68 
3 71 65 184 
3 135 136 174 
3 191 215 337 
3 337 215 114 
3 63 33 182 
3 133 135 181 
3 135 347 181 
3 110 23 81 
3 157 180 183 
3 149 157 183 
3 227 147 220 
3 12 23 30 
3 151 99 46 
3 174 215 191 
3 99 328 46 
3 114 148 234 
3 149 150 157 
3 220 147 284 
3 79 186 336 
3 68 234 191 
3 396 357 356 
3 99 23 12 
3 328 99 12 
3 337 114 68 
3 356 358 396 
3 338 343 342 
3 223 340 339 
3 265 103 96 
3 341 223 339 
3 347 174 191 
3 182 251 201 
3 134 115 80 
3 12 30 203 
3 345 343 338 
3 147 227 103 
3 33 108 251 
3 95 20 91 
3 181 347 191 
3 345 346 343 
3 157 150 180 
3 103 227 18 
3 66 240 58 
3 345 344 346 
3 146 32 108 
3 445 125 444 
3 30 95 91 
3 124 373 374 
3 137 249 72 
3 344 345 338 
3 344 168 346 
3 12 203 328 
3 284 147 103 
3 240 66 37 
3 344 173 168 
3 314 384 322 
3 107 282 93 
3 76 53 107 
3 107 53 282 
3 282 53 333 
3 165 76 107 
3 315 202 291 
3 165 144 76 
3 407 374 367 
3 144 53 76 
3 388 389 92 
3 155 144 330 
3 144 224 53 
3 432 431 434 
3 155 189 144 
3 144 189 224 
3 189 335 53 
3 224 189 53 
3 146 29 32 
3 382 88 209 
3 331 316 350 
3 331 353 316 
3 357 367 366 
3 360 357 366 
3 367 374 373 
3 366 367 373 
3 373 407 374 
3 388 92 169 
3 170 65 155 
3 155 65 189 
3 328 203 91 
3 413 421 414 
3 356 331 358 
3 242 328 91 
3 168 343 346 
3 113 198 122 
3 124 113 122 
3 239 200 315 
3 331 356 357 
3 372 26 102 
3 375 372 102 
3 26 163 102 
3 408 372 375 
3 72 87 65 
3 170 72 65 
3 87 184 65 
3 63 108 11 
3 63 29 108 
3 370 285 231 
3 389 370 231 
3 131 18 140 
3 33 63 108 
3 368 306 321 
3 374 113 124 
3 285 324 268 
3 231 285 268 
3 336 272 186 
3 224 155 139 
3 363 369 372 
3 86 193 163 
3 208 63 111 
3 380 305 202 
3 356 357 321 
3 346 354 352 
3 346 168 354 
3 168 359 354 
3 364 290 369 
3 363 364 369 
3 290 371 372 
3 369 290 372 
3 371 70 26 
3 372 371 26 
3 70 188 26 
3 188 54 26 
3 54 163 26 
3 54 86 163 
3 54 28 86 
3 28 38 86 
3 38 197 86 
3 38 104 197 
3 104 218 87 
3 218 160 87 
3 160 184 87 
3 58 240 208 
3 240 37 63 
3 208 240 63 
3 340 64 132 
3 343 168 346 
3 400 367 357 
3 396 400 357 
3 54 292 28 
3 96 103 18 
3 346 168 343 
3 249 137 248 
3 200 209 199 
3 79 222 281 
3 327 308 309 
3 343 346 352 
3 383 388 169 
3 200 88 209 
3 285 186 324 
3 241 48 79 
3 16 100 79 
3 303 100 79 
3 323 105 451 
3 100 303 186 
3 100 16 79 
3 321 353 331 
3 236 285 370 
3 389 231 92 
3 100 285 117 
3 108 63 11 
3 186 303 79 
3 88 382 209 
3 82 236 389 
3 100 241 79 
3 45 72 71 
3 0 169 97 
3 45 137 72 
3 285 100 186 
3 137 45 58 
3 199 378 305 
3 208 137 58 
3 356 331 357 
3 305 380 202 
3 378 349 305 
3 169 92 315 
3 192 262 75 
3 361 192 75 
3 291 202 237 
3 258 293 207 
3 272 79 377 
3 324 186 268 
3 268 186 88 
3 90 389 388 
3 169 315 291 
3 97 169 291 
3 79 320 377 
3 4 383 169 
3 379 317 368 
3 200 202 315 
3 92 239 315 
3 306 353 321 
3 370 389 236 
3 48 222 79 
3 206 361 185 
3 361 206 185 
3 92 231 239 
3 356 321 331 
3 190 171 185 
3 249 190 185 
3 206 198 361 
3 198 192 361 
3 90 388 383 
3 305 124 237 
3 327 311 326 
3 4 90 383 
3 190 249 1 
3 206 361 185 
3 171 206 185 
3 202 305 237 
3 108 29 146 
3 308 310 309 
3 334 100 117 
3 90 82 389 
3 79 336 186 
3 224 53 335 
3 354 381 318 
3 231 268 239 
3 186 272 209 
3 88 186 209 
3 200 199 202 
3 327 326 319 
3 308 327 319 
3 309 311 327 
3 435 443 446 
3 199 305 202 
3 97 171 190 
3 171 97 206 
3 97 291 206 
3 237 198 206 
3 291 237 206 
3 406 124 305 
3 399 402 400 
3 373 374 407 
3 300 304 311 
3 304 313 311 
3 407 213 113 
3 208 111 256 
3 403 402 399 
3 363 403 399 
3 29 128 32 
3 403 375 402 
3 363 399 359 
3 194 192 198 
3 193 86 75 
3 400 213 407 
3 272 336 79 
3 79 281 320 
3 300 302 297 
3 294 298 304 
3 299 322 314 
3 307 299 314 
3 322 384 314 
3 377 281 325 
3 387 377 325 
3 281 377 320 
3 355 358 331 
3 101 102 262 
3 363 375 403 
3 197 204 75 
3 102 101 262 
3 299 384 322 
3 262 163 193 
3 318 343 352 
3 299 322 384 
3 299 393 322 
3 322 393 384 
3 137 208 256 
3 86 197 75 
3 186 79 336 
3 222 264 281 
3 185 361 75 
3 365 360 366 
3 386 392 393 
3 299 386 393 
3 393 392 384 
3 392 394 384 
3 394 398 387 
3 384 394 387 
3 404 377 387 
3 398 404 387 
3 404 209 377 
3 209 272 377 
3 399 400 358 
3 359 399 358 
3 101 163 262 
3 262 193 75 
3 102 101 375 
3 204 72 249 
3 31 148 134 
3 424 437 427 
3 359 358 355 
3 400 402 213 
3 204 249 185 
3 351 317 386 
3 390 351 386 
3 317 392 386 
3 392 317 394 
3 317 395 394 
3 395 397 398 
3 394 395 398 
3 397 405 404 
3 398 397 404 
3 199 209 404 
3 405 199 404 
3 268 88 239 
3 75 204 185 
3 318 352 354 
3 243 18 227 
3 397 385 405 
3 385 199 405 
3 262 192 194 
3 101 262 194 
3 18 131 96 
3 349 378 199 
3 385 349 199 
3 250 158 167 
3 293 250 167 
3 379 362 395 
3 317 379 395 
3 395 362 397 
3 362 365 397 
3 365 401 397 
3 401 349 385 
3 397 401 385 
3 375 194 213 
3 213 194 113 
3 375 101 194 
3 354 352 318 
3 342 343 318 
3 375 213 402 
3 451 261 443 
3 32 250 293 
3 258 32 293 
3 113 194 198 
3 351 409 368 
3 355 331 354 
3 339 340 344 
3 372 375 363 
3 339 344 338 
3 368 321 379 
3 360 362 379 
3 360 365 362 
3 366 365 362 
3 365 366 362 
3 406 349 401 
3 365 406 401 
3 108 258 52 
3 258 108 32 
3 305 349 406 
3 297 302 301 
3 52 251 108 
3 321 360 379 
3 384 325 314 
3 373 406 365 
3 366 373 365 
3 373 349 406 
3 349 373 406 
3 373 124 406 
3 106 105 323 
3 439 434 431 
3 18 243 229 
3 83 57 260 
3 447 83 260 
3 418 425 429 
3 439 441 434 
3 441 442 434 
3 257 106 323 
3 391 425 418 
3 435 437 444 
3 257 323 452 
3 391 418 294 
3 296 440 441 
3 440 296 441 
3 131 59 138 
3 294 413 295 
3 95 30 20 
3 428 432 434 
3 422 424 415 
3 294 420 413 
3 425 296 429 
3 414 422 415 
3 425 121 296 
3 296 440 431 
3 452 323 451 
3 296 83 447 
3 431 441 439 
3 445 444 436 
3 429 296 431 
3 450 56 106 
3 301 121 433 
3 106 257 452 
3 414 415 411 
3 390 413 386 
3 18 229 59 
3 59 229 46 
3 386 414 411 
3 301 433 425 
3 248 256 196 
3 411 416 412 
3 300 391 304 
3 422 436 424 
3 46 229 151 
3 127 121 301 
3 412 419 356 
3 295 413 390 
3 351 390 411 
3 442 56 125 
3 409 351 412 
3 247 243 13 
3 330 172 155 
3 451 118 67 
3 364 44 290 
3 290 44 166 
3 166 210 265 
3 265 210 284 
3 442 436 434 
3 229 99 151 
3 364 449 44 
3 449 283 44 
3 418 420 294 
3 363 449 364 
3 212 284 210 
3 44 210 166 
3 420 428 422 
3 44 212 210 
3 247 229 243 
3 229 247 99 
3 127 266 178 
3 56 450 260 
3 413 420 421 
3 359 168 363 
3 363 168 449 
3 415 424 416 
3 296 447 260 
3 212 220 284 
3 436 437 424 
3 351 411 412 
3 440 441 431 
3 283 212 44 
3 451 67 261 
3 168 173 449 
3 449 173 283 
3 426 342 318 
3 381 426 318 
3 212 348 220 
3 266 127 301 
3 426 338 342 
3 149 283 173 
3 149 212 283 
3 438 338 426 
3 433 121 425 
3 149 183 212 
3 414 421 422 
3 172 170 155 
3 368 317 351 
3 350 381 376 
3 67 259 261 
3 183 112 212 
3 212 112 348 
3 348 112 220 
3 432 431 434 
3 448 339 338 
3 438 448 338 
3 420 431 432 
3 112 221 220 
3 428 420 432 
3 431 432 434 
3 417 381 350 
3 422 428 434 
3 423 426 381 
3 417 423 381 
3 56 260 57 
3 451 105 118 
3 296 260 440 
3 386 413 414 
3 306 350 316 
3 448 341 339 
3 415 416 411 
3 436 444 437 
3 259 341 448 
3 297 425 391 
3 442 125 445 
3 450 106 452 
3 410 350 306 
3 341 259 223 
3 355 417 350 
3 410 355 350 
3 259 64 223 
3 410 356 350 
3 356 410 350 
3 356 355 410 
3 355 419 417 
3 247 13 99 
3 195 112 183 
3 180 112 195 
3 419 355 356 
3 301 425 297 
3 390 386 411 
3 446 259 448 
3 446 261 259 
3 434 436 422 
3 421 420 422 
3 409 410 306 
3 368 409 306 
3 412 356 410 
3 409 412 410 
3 442 445 436 
3 435 423 430 
